HIERARCHY
ROOT root
{
	OFFSET	0	13.1	24.9
	CHANNELS 6  Xposition Yposition Zposition Xrotation Yrotation Zrotation
	JOINT spine_1
	{
		OFFSET	0	9.99999	0
		CHANNELS 3  Xrotation Yrotation Zrotation
		JOINT spine_2
		{
			OFFSET	0	112	-10
			CHANNELS 3  Xrotation Yrotation Zrotation
			JOINT spine_3
			{
				OFFSET	0	206.5	19.3
				CHANNELS 3  Xrotation Yrotation Zrotation
				JOINT spine_4
				{
					OFFSET	0	110.4	14.6
					CHANNELS 3  Xrotation Yrotation Zrotation
					JOINT neck_1
					{
						OFFSET	0	71.8	-50.3
						CHANNELS 3  Xrotation Yrotation Zrotation
						JOINT neck_2
						{
							OFFSET	0	86.2	-25.8
							CHANNELS 3  Xrotation Yrotation Zrotation
							JOINT head_ee
							{
								OFFSET	0	179.8	-8.7
								CHANNELS 3  Xrotation Yrotation Zrotation
								End Site
								{
									OFFSET	1	0	0
								}
							}
						}
					}
					JOINT left_clavicle
					{
						OFFSET	-43.2	22.4	-70.8
						CHANNELS 3  Xrotation Yrotation Zrotation
						JOINT left_shoulder
						{
							OFFSET	-93.9	-5.79999	48.7
							CHANNELS 3  Xrotation Yrotation Zrotation
							JOINT left_elbow
							{
								OFFSET	-291.4	-30.8	15.2
								CHANNELS 3  Xrotation Yrotation Zrotation
								JOINT left_lowarm_twist
								{
									OFFSET	-110.7	-3.89999	13.6
									CHANNELS 3  Xrotation Yrotation Zrotation
									JOINT left_hand
									{
										OFFSET	-110.7	-3.89999	13.6
										CHANNELS 3  Xrotation Yrotation Zrotation
										JOINT left_ee
										{
											OFFSET	-80.8	-5.10001	12.1
											CHANNELS 3  Xrotation Yrotation Zrotation
											End Site
											{
												OFFSET	1	0	0
											}
										}
									}
								}
							}
						}
					}
					JOINT right_clavicle
					{
						OFFSET	43.2	22.4	-70.8
						CHANNELS 3  Xrotation Yrotation Zrotation
						JOINT right_shoulder
						{
							OFFSET	93.9	-5.79999	48.7
							CHANNELS 3  Xrotation Yrotation Zrotation
							JOINT right_elbow
							{
								OFFSET	291.4	-30.8	15.2
								CHANNELS 3  Xrotation Yrotation Zrotation
								JOINT right_lowarm_twist
								{
									OFFSET	110.7	-3.89999	13.6
									CHANNELS 3  Xrotation Yrotation Zrotation
									JOINT right_hand
									{
										OFFSET	110.7	-3.89999	13.6
										CHANNELS 3  Xrotation Yrotation Zrotation
										JOINT right_ee
										{
											OFFSET	80.8	-5.10001	12.1
											CHANNELS 3  Xrotation Yrotation Zrotation
											End Site
											{
												OFFSET	1	0	0
											}
										}
									}
								}
							}
						}
					}
				}
			}
		}
	}
	JOINT left_hip
	{
		OFFSET	-82.8	-127.5	0.300001
		CHANNELS 3  Xrotation Yrotation Zrotation
		JOINT left_knee
		{
			OFFSET	-28.2	-396.7	2.2
			CHANNELS 3  Xrotation Yrotation Zrotation
			JOINT left_ankle
			{
				OFFSET	-11.7	-411.3	35.4
				CHANNELS 3  Xrotation Yrotation Zrotation
				JOINT left_toes
				{
					OFFSET	0	-60	-88.6
					CHANNELS 3  Xrotation Yrotation Zrotation
					JOINT left_foot_ee
					{
						OFFSET	-22.5	-16.5	-42.2
						CHANNELS 3  Xrotation Yrotation Zrotation
						End Site
						{
							OFFSET	1	0	0
						}
					}
				}
			}
		}
	}
	JOINT right_hip
	{
		OFFSET	82.8	-127.5	0.300001
		CHANNELS 3  Xrotation Yrotation Zrotation
		JOINT right_knee
		{
			OFFSET	28.2	-396.7	2.2
			CHANNELS 3  Xrotation Yrotation Zrotation
			JOINT right_ankle
			{
				OFFSET	11.7	-411.3	35.4
				CHANNELS 3  Xrotation Yrotation Zrotation
				JOINT right_toes
				{
					OFFSET	0	-60	-88.6
					CHANNELS 3  Xrotation Yrotation Zrotation
					JOINT right_foot_ee
					{
						OFFSET	22.5	-16.5	-42.2
						CHANNELS 3  Xrotation Yrotation Zrotation
						End Site
						{
							OFFSET	1	0	0
						}
					}
				}
			}
		}
	}
}
MOTION
Frames: 6
Frame Time: 0.02
880.691612215 618.552 -1849.93139945 -14.1365143752 26.3661630771 14.1817126273 8.06584 -0.552883 -3.71727 8.07348 -0.315393 -3.74487 8.08091 -0.0502994 -3.75777 8.06178 -0.642725 -3.70281 -26.7688 6.51465 5.10555 -26.9409 10.5521 8.25997 -0.0 0.0 -0.0 9.42712 -1.13199 18.5187 -22.7229 -13.7702 56.6632 1.26161 -32.0025 0.361802 -7.95508 -0.347254 0.955054 0.021849 8.54842 3.69335 -0.0 0.0 -0.0 -0.817818 5.43195 2.29653 -37.548 1.32809 -73.6275 0.890105 23.7939 -0.187529 72.1588 2.9674 8.10748 -1.31983 -23.5689 -1.80452 0.0 0.0 0.0 19.2575 -13.4585 -6.60277 5.09153 -0.242899 -0.743132 -4.98032 28.9334 0.785602 26.5602 -0.0 -0.0 -0.0 0.0 -0.0 30.7478 1.23969 -2.07726 -44.1973 0.755155 -6.57561 2.62301 12.8611 0.408896 18.0756 -0.0 -0.0 0.0 0.0 0.0 
885.809752348 621.13 -1847.0864342 -14.282798906 25.4291932211 14.6505776738 7.99711 -0.497175 -3.88 8.00545 -0.249465 -3.90373 8.0083 0.0317996 -3.91155 7.98743 -0.585886 -3.86762 -28.762 5.91214 5.5904 -28.8886 9.35931 8.61922 -0.0 0.0 -0.0 9.13803 -1.70264 17.9387 -20.9112 -13.0336 56.1864 1.37893 -34.3343 0.426002 -6.54663 -0.276142 0.789567 -0.12285 5.74558 1.59566 -0.0 0.0 -0.0 -0.730302 6.565 2.26572 -35.7512 1.71479 -75.3177 0.812485 21.9237 -0.157373 71.5105 2.89859 8.06071 -1.39756 -21.4942 -0.426088 0.0 0.0 0.0 19.8004 -12.0428 -7.68675 6.16347 -0.302415 -0.89672 -9.48287 29.2786 1.50927 26.2102 -0.0 -0.0 -0.0 0.0 -0.0 31.4749 -1.4125 -2.43015 -41.6896 0.57774 -6.23316 0.149206 15.1812 0.0238177 16.3994 -0.0 -0.0 0.0 0.0 0.0 
879.386365443 616.592 -1853.22427787 -13.4416329333 23.592926975 14.4263313396 7.6976 -0.522613 -3.88778 7.70597 -0.274358 -3.9131 7.71119 0.02796 -3.92259 7.69021 -0.591418 -3.87792 -30.014 5.09291 5.86196 -30.0752 7.7908 8.53829 -0.0 0.0 -0.0 8.79456 -2.52117 17.2465 -18.7584 -11.2547 55.0838 1.4944 -36.5095 0.492941 -5.43424 -0.222873 0.657677 -0.526462 5.88521 -0.986033 -0.0 0.0 -0.0 -1.0822 7.20679 3.06825 -32.9214 2.14059 -75.9144 0.78976 21.3665 -0.14899 70.6786 2.81109 7.99957 -1.51517 -17.6315 2.03863 0.0 0.0 0.0 18.8429 -8.74532 -8.34693 5.67293 -0.274822 -0.826572 -13.4538 29.3877 2.15239 25.8947 -0.0 -0.0 -0.0 0.0 -0.0 33.9808 -7.15838 -2.35224 -36.9754 0.285642 -5.57019 -3.71291 18.1067 -0.612931 14.3803 -0.0 -0.0 0.0 0.0 0.0 
872.642024085 618.735 -1858.62596859 -13.1779994906 22.3781755663 14.2069814284 7.6246 -0.561197 -3.77486 7.63247 -0.320033 -3.80287 7.6411 -0.0215065 -3.81623 7.62132 -0.623506 -3.76509 -29.6205 4.9293 5.98399 -29.6592 7.40591 8.51148 -0.0 0.0 -0.0 8.65982 -2.69687 16.9708 -18.3132 -10.2909 55.0626 1.51906 -36.9588 0.507688 -5.10367 -0.207538 0.61829 -0.699959 6.09036 -2.03213 -0.0 0.0 -0.0 -0.822457 6.86663 2.49253 -31.5609 2.19915 -75.3695 0.777607 21.0668 -0.144592 70.3944 2.78139 7.97839 -1.52177 -16.1026 2.78557 0.0 0.0 0.0 18.7194 -7.17439 -8.2354 5.10048 -0.243384 -0.74442 -14.5934 29.465 2.33831 26.132 -0.0 -0.0 -0.0 0.0 -0.0 34.5898 -10.145 -1.92508 -34.9763 0.178474 -5.28235 -4.95354 18.7205 -0.824448 13.8498 -0.0 -0.0 0.0 0.0 0.0 
855.386280662 623.057 -1868.46504333 -13.0959171429 18.6725449353 12.9692952992 7.2228 -0.589997 -3.80279 7.23078 -0.347002 -3.83256 7.24208 -0.0192905 -3.84817 7.22197 -0.626351 -3.79698 -29.3158 3.76702 3.4539 -29.3736 6.02448 5.43082 -0.0 0.0 -0.0 8.8576 -0.418068 17.3293 -15.5574 -8.77155 54.9037 1.49783 -36.5723 0.494982 -4.35404 -0.17361 0.528652 -1.78197 11.4239 -6.61467 -0.0 0.0 -0.0 -0.43491 4.2319 1.37301 -29.8521 5.85826 -71.2836 0.793461 21.4576 -0.150341 69.1893 2.65668 7.88698 -1.07858 -11.2949 2.19224 0.0 0.0 0.0 18.8023 0.499511 -6.8845 4.06198 -0.188458 -0.594615 -9.63642 28.8402 1.52966 30.0411 -0.0 -0.0 -0.0 0.0 -0.0 35.1047 -17.3927 -0.869742 -23.8593 -0.229894 -3.6278 -12.196 20.3662 -2.08634 15.9146 -0.0 -0.0 0.0 0.0 0.0 
857.134828616 623.057 -1870.19701815 -13.0555509159 18.1504454424 12.8414904952 7.2228 -0.589997 -3.80279 7.23078 -0.347002 -3.83256 7.24208 -0.0192905 -3.84817 7.22197 -0.626351 -3.79698 -29.3158 3.76702 3.4539 -29.3736 6.02448 5.43082 -0.0 0.0 -0.0 8.8576 -0.418068 17.3293 -15.5574 -8.77155 54.9037 1.49783 -36.5723 0.494982 -4.35404 -0.17361 0.528652 -1.78197 11.4239 -6.61467 -0.0 0.0 -0.0 -0.43491 4.2319 1.37301 -29.8521 5.85826 -71.2836 0.793461 21.4576 -0.150341 69.1893 2.65668 7.88698 -1.07858 -11.2949 2.19224 0.0 0.0 0.0 18.8023 0.499511 -6.8845 4.06198 -0.188458 -0.594615 -9.63642 28.8402 1.52966 30.0411 -0.0 -0.0 -0.0 0.0 -0.0 35.1047 -17.3927 -0.869742 -23.8593 -0.229894 -3.6278 -12.196 20.3662 -2.08634 15.9146 -0.0 -0.0 0.0 0.0 0.0 
